# xmcd
#
# Track frame offsets:
#	150
#	18328
#	34902
#	79530
#	95730
#	116134
#	132318
#	140273
#	149557
#	158216
#	171079
#	189745
#	208696
#	214286
#	231795
#	250704
#
# Disc length: 3515 seconds
#
# Revision: 0
# Processed by: cddbd v1.4PL0 Copyright (c) Steve Scherf et al.
# Submitted via: dBpowerAMP V4.0
#
DISCID=e90db910
DTITLE=Suomilyriikkaa tuotanto - Viimeinen kakistus
DYEAR=2002
DGENRE=Rap
TTITLE0=Et tienny kelle vittuilit (remix)
TTITLE1=Nyt nepataan
TTITLE2=Riimiripuli
TTITLE3=Kassuja and ceedeitä
TTITLE4=Visesimanala
TTITLE5=Ajankohdasta riippumatta
TTITLE6=Huoltaa (raaka remix)
TTITLE7=Huoltaa II
TTITLE8=Kalevi Poeg freestyle Soukassa
TTITLE9=Raimo and kumppanit Oy (lomautus remix)
TTITLE10=Mitä sä tiedät
TTITLE11=Ootteks te down
TTITLE12=Painajainen Olarinkadulla
TTITLE13=Yks surullinen tarina
TTITLE14=Kuollutkulma (remix)
TTITLE15=Väkisin välistä vetämässä
EXTD=www.suomilyriikkaa.tk
EXTT0=
EXTT1=
EXTT2=
EXTT3=
EXTT4=
EXTT5=
EXTT6=
EXTT7=
EXTT8=
EXTT9=
EXTT10=
EXTT11=
EXTT12=
EXTT13=
EXTT14=
EXTT15=
PLAYORDER=
